<svg xmlns="http://www.w3.org/2000/svg" viewBox="0 0 246 171" fill-rule="evenodd" clip-rule="evenodd" stroke-linejoin="bevel">
  <path d="M107.269 17.788l-2.642 1.423c-1.107-2.056-1.793-4.778-1.591-7.243.148-1.804.765-3.47 1.947-4.724C106.237 5.913 108.145 5 110.947 5c3.364 0 6.935 2.243 10.321 5.584 4.633 4.572 9.027 11.147 12.366 15.499 12.595 15.821 38.481 34.502 58.58 43.072 8.344 3.559 15.64 5.414 20.472 4.378 9.766-2.093 17.197-9.106 22.652-14.726 2.277-2.346 4.221-4.467 5.846-5.949 1.253-1.142 2.365-1.924 3.299-2.266l1.034 2.816c-.666.244-1.42.854-2.312 1.667-1.59 1.45-3.487 3.527-5.714 5.821-5.806 5.982-13.783 13.343-24.177 15.571-5.248 1.124-13.214-.687-22.277-4.552-20.513-8.747-46.92-27.837-59.772-43.992l-.008-.01c-3.265-4.254-7.556-10.713-12.096-15.193-2.734-2.697-5.498-4.72-8.214-4.72-1.758 0-2.994.466-3.781 1.302-.723.767-1.05 1.807-1.14 2.911-.156 1.898.39 3.992 1.243 5.575z" fill="#ffdb08"/>
  <path d="M130.464 28.522c-3.242-4.224-7.497-10.641-12.006-15.09C115.942 10.949 113.447 9 110.947 9c-1.411 0-2.421.317-3.053.987-.571.606-.8 1.437-.872 2.308-.14 1.709.359 3.593 1.127 5.019l.474.881-4.402 2.371-.474-.881c-1.192-2.213-1.925-5.145-1.708-7.798.167-2.038.881-3.912 2.216-5.329C105.665 5.062 107.797 4 110.947 4c3.581 0 7.42 2.317 11.023 5.873 4.663 4.601 9.091 11.212 12.457 15.601 12.514 15.711 38.222 34.251 58.179 42.762 8.105 3.456 15.177 5.325 19.87 4.319 9.557-2.047 16.806-8.945 22.144-14.445 2.294-2.363 4.253-4.498 5.891-5.991 1.372-1.251 2.604-2.09 3.628-2.466l.939-.345 1.722 4.695-.939.344c-.576.211-1.21.764-1.982 1.467-1.578 1.439-3.46 3.501-5.671 5.779-5.923 6.102-14.081 13.579-24.684 15.851-5.387 1.155-13.576-.642-22.879-4.609-20.649-8.805-47.225-28.027-60.162-44.289.31.385.693.374.763.368a.05.05 0 00.011-.001l-.793-.391zm.019.024l-.019-.024.782.392-.763-.368zm-23.214-10.758c-.853-1.583-1.399-3.677-1.243-5.575.09-1.104.417-2.144 1.14-2.911.787-.836 2.023-1.302 3.781-1.302 2.716 0 5.48 2.023 8.214 4.72 4.54 4.48 8.831 10.939 12.096 15.193l.008.01c12.852 16.155 39.259 35.245 59.772 43.992 9.063 3.865 17.029 5.676 22.277 4.552 10.394-2.228 18.371-9.589 24.177-15.571 2.227-2.294 4.124-4.371 5.714-5.821.892-.813 1.646-1.423 2.312-1.667l-1.034-2.816c-.934.342-2.046 1.124-3.299 2.266-1.625 1.482-3.569 3.603-5.846 5.949-5.455 5.62-12.886 12.633-22.652 14.726-4.832 1.036-12.128-.819-20.472-4.378-20.099-8.57-45.985-27.251-58.58-43.072-3.339-4.352-7.733-10.927-12.366-15.499C117.882 7.243 114.311 5 110.947 5c-2.802 0-4.71.913-5.964 2.244-1.182 1.254-1.799 2.92-1.947 4.724-.202 2.465.484 5.187 1.591 7.243l2.642-1.423z"/>
  <path d="M234.356 22.857l-10.212-10.213L186.5 50.288 156.713 20.5 146.5 30.713l29.787 29.788L146.5 90.287l10.213 10.213L186.5 70.713l32.144 32.144 10.212-10.213L196.713 60.5l37.643-37.643z" fill="#828c97"/>
  <path d="M224.144 12.644l.353-.353-.353-.354-.354.354.354.353zm10.212 10.213l.354.354.353-.354-.353-.354-.354.354zM186.5 50.287l-.354.354.354.354.353-.354-.353-.353v-.001zm-29.787-29.786l.353-.354-.353-.353-.354.353.354.354zM146.5 30.713l-.354-.353-.353.353.353.354.354-.354zm29.787 29.788l.354.353.353-.353-.353-.354-.354.354zM146.5 90.287l-.354-.354-.353.354.353.353.354-.353zm10.213 10.213l-.354.354.354.354.353-.354-.353-.354zM186.5 70.713l.353-.353-.353-.354-.354.354.354.353zm32.144 32.144l-.354.354.354.353.353-.353-.353-.354zm10.212-10.213l.354.354.353-.354-.353-.353-.354.353zM196.713 60.5l-.354-.353-.353.354.353.353.354-.353V60.5zm27.077-47.502l10.213 10.213.707-.708-10.213-10.212-.707.707zM186.853 50.64l37.644-37.643-.707-.707-37.644 37.643.707.707zm-30.494-29.787l29.787 29.787.707-.707-29.787-29.787-.707.707zm-9.505 10.213l10.212-10.213-.707-.707-10.213 10.213.708.707zm29.787 29.08L146.854 30.36l-.708.707 29.788 29.787.707-.707v-.001zM146.854 90.64l29.787-29.787-.707-.707-29.788 29.787.708.707zm10.212 9.506l-10.212-10.213-.708.707 10.213 10.213.707-.707zm29.08-29.787l-29.787 29.787.707.707 29.787-29.787-.707-.707zm32.851 32.143L186.853 70.36l-.707.707 32.144 32.144.707-.708v-.001zm9.506-10.212l-10.213 10.212.707.708 10.213-10.213-.707-.707zm-32.144-31.437l32.144 32.144.707-.707-32.144-32.144-.707.707zm37.644-38.35l-37.644 37.643.707.707L234.71 23.21l-.707-.707z" fill-rule="nonzero"/>
  <path d="M146.284 34.91l-.475.228.252.463c8.013 14.684 21.406 36.137 35.562 52.755 7.068 8.296 14.418 15.498 21.47 20.028 6.979 4.484 14.223 6.689 20.675 3.844 22.342-9.854 33.413-28.705 36.206-37.082l.164-.492-.497-.146-3.045-.891-.463-.136-.152.457c-2.524 7.568-12.933 25.39-33.975 34.67-4.396 1.938-9.952.72-16.569-3.531-6.546-4.206-13.591-11.055-20.56-19.235-13.916-16.335-27.16-37.534-35.098-52.081l-.227-.417-.428.205-2.84 1.361zm-40.788-20.797l.484-.126-.126-.484c-.647-2.476-.342-4.314.38-5.619.729-1.318 2.011-2.322 3.733-2.888 3.497-1.148 8.541-.363 12.678 3.054 8.158 6.74 13.721 17.209 16.407 22.271l.002.003c.22.415.422.795.603 1.132l.237.44.441-.236 2.641-1.423.44-.237-.237-.44c-.176-.328-.376-.704-.599-1.126l-.009-.018c-2.654-5.011-8.563-16.167-17.379-23.45-5.064-4.183-11.519-5.397-16.473-3.77-2.502.821-4.683 2.398-5.985 4.752-1.309 2.367-1.605 5.292-.751 8.565l.126.484.484-.126 2.903-.758z" fill="#ff6100" fill-rule="nonzero" stroke="#000"/>
  <path d="M232.144 12.644l10.213 10.213-77.644 77.643L154.5 90.288l77.644-77.644z" fill="#fff" fill-rule="nonzero" stroke="#000" stroke-linejoin="miter"/>
  <path d="M154.5 30.713L164.712 20.5l72.144 72.144-10.213 10.212L154.5 30.713z" fill="#fff" fill-rule="nonzero" stroke="#000" stroke-linejoin="miter"/>
  <path d="M28.875 34.542l24.533.739a4.012 4.012 0 013.847 3.49l4.079 31.836a4.003 4.003 0 01-.897 3.072l-6.906 8.273a3.999 3.999 0 00-.914 2.914l1.375 15.624c8.61-2.387 16.036.912 20.61 4.614 1.64 1.328 1.548 3.746.052 5.234l-21.267 21.166a4 4 0 01-2.624 1.16l-41.432 2.058c-2.176.108-4.06-1.581-4.191-3.755L.65 56.438a4.005 4.005 0 011.63-3.467l24.11-17.658a3.999 3.999 0 012.485-.771z" fill="#16a6ff" fill-rule="nonzero"/>
  <path d="M41.441 107.982c4.328-4.064 8.566-6.387 12.55-7.492m0 0c8.612-2.387 16.037.912 20.61 4.614 1.641 1.328 1.549 3.746.053 5.234l-21.267 21.166a4 4 0 01-2.624 1.16l-41.432 2.058c-2.176.108-4.06-1.581-4.191-3.755L.65 56.438a4.005 4.005 0 011.63-3.467l24.11-17.658a3.999 3.999 0 012.485-.771l24.533.739a4.012 4.012 0 013.847 3.49l4.079 31.836a4.003 4.003 0 01-.897 3.072l-6.906 8.273a3.999 3.999 0 00-.914 2.914l1.375 15.624h-.001z" fill="none" stroke="#000" stroke-linejoin="miter"/>
  <path d="M52.978 76.89L11.972 50.486c-2.222-1.43-2.47-4.585-.499-6.346l8.373-7.48a4.002 4.002 0 012.58-1.016l30.215-.65a4.015 4.015 0 014.054 3.491l4.091 31.938a4.004 4.004 0 01-.606 2.677l-1.675 2.597c-1.189 1.843-3.683 2.382-5.527 1.195v-.002zM8.783 51.025l44.69 30.087a4.005 4.005 0 011.728 3.874l-.58 4.129a3.963 3.963 0 00-.037.671l.132 4.56a4.055 4.055 0 01-2.194 3.701c-18.733 9.715-29.053 18.709-41.373 31.141-2.46 2.481-6.716.888-6.896-2.602L.62 56.216a4.004 4.004 0 011.383-3.235l1.934-1.668a4.01 4.01 0 014.846-.288z" fill="#e2e4dd" fill-rule="nonzero" stroke="#000" stroke-linejoin="miter"/>
  <path d="M17.535 127.855c32.817-35.942 53.947-32.784 58.502-21.388.5 1.25.056 2.64-.889 3.598l-21.155 21.451a4.007 4.007 0 01-2.638 1.186l-30.705 1.616c-3.492.184-5.473-3.881-3.115-6.463z" fill="#e2e4dd" fill-rule="nonzero" stroke="#000" stroke-linejoin="miter"/>
  <path d="M39.83 29.467l14.391 3.395c4.1.967 7 4.69 6.933 8.902l-.483 30.483a9.004 9.004 0 01-2.086 5.62l-5.362 6.434a9 9 0 00-2.077 5.334l-.764 16.043c6.479-1.59 11.743 1.033 15.355 4.498 2.867 2.75 2.145 7.22-.651 10.042l-17.577 17.736a9.002 9.002 0 01-6.666 2.66l-27.966-.848c-5.106-.154-9.06-4.524-8.705-9.621l5.28-75.766a9.002 9.002 0 013.08-6.172L31.864 31.43a9.005 9.005 0 017.965-1.962l.001-.001z" fill="#16a6ff" fill-rule="nonzero"/>
  <path d="M38.465 112.874c4.3-4.105 8.299-6.308 11.917-7.196m0 0c6.479-1.59 11.743 1.033 15.355 4.498 2.867 2.75 2.145 7.22-.651 10.042l-17.577 17.736a9.002 9.002 0 01-6.666 2.66l-27.966-.848c-5.106-.154-9.06-4.524-8.705-9.621l5.28-75.766a9.002 9.002 0 013.08-6.172L31.864 31.43a9.005 9.005 0 017.965-1.962l14.391 3.395c4.1.967 7 4.69 6.933 8.902l-.483 30.483a9.004 9.004 0 01-2.086 5.62l-5.362 6.434a9 9 0 00-2.077 5.334l-.764 16.043.001-.001z" fill="none" stroke="#000" stroke-linejoin="miter"/>
  <path d="M51.742 78.915L19.678 46.932a4.002 4.002 0 01.133-5.791l8.868-8.063a4.003 4.003 0 012.953-1.032l25.39 1.668a4.016 4.016 0 013.738 4.055l-.57 35.926a4 4 0 01-.664 2.146L57.9 78.293a4.002 4.002 0 01-6.16.622h.002zM18 48.466l34.567 36.06a4.003 4.003 0 011.01 3.672l-1.258 5.421-.566 5.971a4.06 4.06 0 01-2.181 3.21c-17.062 8.831-27.145 17.552-38.953 29.521-2.638 2.674-7.209.634-6.922-3.111l5.89-76.931a4.001 4.001 0 011.349-2.7l1.536-1.35a4.018 4.018 0 015.528.237z" fill="#e2e4dd" fill-rule="nonzero" stroke="#000" stroke-linejoin="miter"/>
  <path d="M14.286 133.561c34.251-38.21 52.567-32.343 54.656-18.969.172 1.1-.263 2.193-1.04 2.99l-21.401 21.981a4.007 4.007 0 01-2.972 1.208l-26.41-.702c-3.345-.089-5.066-4.016-2.833-6.508z" fill="#e2e4dd" fill-rule="nonzero" stroke="#000" stroke-linejoin="miter"/>
  <path d="M135.5 16.5l9.5 94.501-23.5 1.112-61 2.888-4.5-23.5-1.254-17-3.246-44 84-14V16.5z" fill="#828c97" fill-rule="nonzero"/>
  <path d="M54.746 74.5L56 91.5l4.5 23.501 61-2.888M54.746 74.501l-3.246-44 84-14L145 111l-23.5 1.112M54.746 74.501c34.943 6.354 48.104 15.954 66.754 37.612" fill="none" stroke="#000" stroke-linejoin="miter"/>
  <path d="M39.043 29.893l12.831 1.027a9.025 9.025 0 018.206 7.802l4.178 31.9a9 9 0 01-1 5.435l-4.34 8.059a9.003 9.003 0 00-1.038 5.082l1.755 19.303c5.846-2.724 11.182-1.908 15.066.415 3.15 1.884 3.124 6.099 1.124 9.176l-13.963 21.482a9.01 9.01 0 01-6.273 4.005L30.6 147.148c-5.133.734-9.822-3.01-10.243-8.178l-6.444-79.038a9 9 0 011.803-6.174l15.44-20.336a9.007 9.007 0 017.886-3.529h.001z" fill="#16a6ff" fill-rule="nonzero"/>
  <path d="M53 116.501c4.865-2.5 3.405-6.496 6.635-8m0 0c5.846-2.724 11.182-1.908 15.066.415 3.15 1.884 3.124 6.099 1.124 9.176l-13.963 21.482a9.01 9.01 0 01-6.273 4.005L30.6 147.148c-5.133.734-9.822-3.01-10.243-8.178l-6.444-79.038a9 9 0 011.803-6.174l15.44-20.336a9.007 9.007 0 017.886-3.529l12.831 1.027a9.025 9.025 0 018.206 7.802l4.178 31.9a9 9 0 01-1 5.435l-4.34 8.059a9.003 9.003 0 00-1.038 5.082l1.755 19.303h.001z" fill="none" stroke="#000" stroke-linejoin="miter"/>
  <path d="M56.817 78.141L22.453 50.545a4.017 4.017 0 01-.746-5.45l7.246-10.104a4.001 4.001 0 012.835-1.648l23.331-2.437a4.018 4.018 0 014.383 3.464l4.862 37.5a4.001 4.001 0 01-.263 2.024l-1.075 2.639c-1.01 2.478-4.123 3.284-6.209 1.608zM20.675 54.032l37.832 30.17a4.005 4.005 0 011.498 3.377l-.37 5.922.38 6.475a4.052 4.052 0 01-1.438 3.326c-13.876 11.717-22.24 22.118-31.377 35.952-2.127 3.222-7.189 1.963-7.479-1.887L13.75 58.032a4.002 4.002 0 01.824-2.746l.442-.573a4.002 4.002 0 015.659-.68v-.001z" fill="#e2e4dd" fill-rule="nonzero" stroke="#000" stroke-linejoin="miter"/>
  <path d="M30.582 140.805c26.362-41.158 43.89-41.55 47.682-28.359.282.984.064 2.036-.487 2.9l-16.66 26.114a3.995 3.995 0 01-2.79 1.806l-23.855 3.509c-3.336.49-5.709-3.131-3.89-5.97z" fill="#e2e4dd" fill-rule="nonzero" stroke="#000" stroke-linejoin="miter"/>
  <path d="M28.19 32.4l-.16-1.78c-.038-.42.157-.826.508-1.058 0 0 3.017-3.18 12.462-4.561 9.445-1.383 17.29 2.216 17.29 2.216l.218 2.434c.175 1.95-1.085 3.746-2.99 4.2-4.426 1.056-8.176 1.731-11.973 2.068-3.644.323-7.331.335-11.699.074-1.94-.116-3.483-1.655-3.657-3.592l.001-.001z" fill="#e2e4dd" fill-rule="nonzero"/>
  <path d="M58.29 27.217l.218 2.434c.175 1.95-1.085 3.746-2.99 4.2-4.426 1.056-8.176 1.731-11.973 2.068-3.644.323-7.331.335-11.699.074-1.94-.116-3.483-1.655-3.657-3.592l-.16-1.782a1.145 1.145 0 01.51-1.057m29.75-2.345S50.445 23.618 41 25.001c-9.445 1.382-12.462 4.561-12.462 4.561m29.751-2.345c-5.945 1.517-10.559 2.409-15.278 2.75-4.356.314-8.803.16-14.473-.405" fill="none" stroke="#000" stroke-linejoin="miter"/>
  <path d="M69.5 117.001c16.8-33.2 53.667-33.167 70-29 5 3 14.3 12 11.5 24-20.5 30.5-95.227 70.904-109 53-15-19.5 14-31.5 27.5-48z" fill="#16a6ff" fill-rule="nonzero" stroke="#000" stroke-linejoin="miter"/>
  <path d="M127.5 136.001c11.568-8.468 21.105-15.618 22.5-20.5 8.513-29.795-34.8-28.487-51-15.789v2.338c24.017.969 30.435 16.056 28.5 33.951z" fill="#e2e4dd" fill-rule="nonzero" stroke="#000" stroke-linejoin="miter"/>
  <path d="M42 153.501c-.496 6.949 2.703 11.049 6.04 13.639 3.312 2.57 7.709 3.338 11.812 2.479 22.433-4.698 60.881-26.131 63.148-31.118 3.5-42.5-38.5-34.5-50-19.5s-30 20.5-31 34.5z" fill="#e2e4dd" fill-rule="nonzero" stroke="#000" stroke-linejoin="miter"/>
  <path d="M257.496 17.635a7.004 7.004 0 01-6.719 7.271l-104.73 4.133a7.003 7.003 0 01-7.271-6.719 7.003 7.003 0 016.719-7.27l104.73-4.133a7.004 7.004 0 017.271 6.718z" fill="#16a6ff" stroke="#000" stroke-linejoin="miter"/>
  <path d="M159.906 93.557c-6.473.943-9.134 8.807-4.622 13.543 2.252 2.364 5.702 3.124 8.788 2.062 26.355-9.069 41.748-6.237 88.375.774 3.735.561 7.119-2.329 7.119-6.106 0-2.728-1.788-5.141-4.412-5.885-37.31-10.576-62.967-9.09-95.248-4.388z" fill="#16a6ff" fill-rule="nonzero" stroke="#000" stroke-linejoin="miter"/>
  <path d="M157.465 18.227l9.484 79.806c.835 7.024-4.19 13.404-11.214 14.239-7.024.835-13.404-4.19-14.239-11.214l-9.484-79.807c-.834-7.024 4.191-13.404 11.214-14.239 7.024-.834 13.405 4.191 14.239 11.215z" fill="#16a6ff" stroke="#000" stroke-linejoin="miter"/>
  <path d="M166.44 93.755l.509 4.278c.834 7.024-4.19 13.405-11.214 14.239-7.024.835-13.404-4.19-14.239-11.214l-.509-4.279c-.834-7.024 4.191-13.404 11.214-14.239 7.024-.834 13.405 4.191 14.239 11.215z" fill="#e2e4dd" stroke="#000" stroke-linejoin="miter"/>
  <path d="M160.224 100.004v.001a6.05 6.05 0 01-5.291 6.719h-.001a6.05 6.05 0 01-6.718-5.291v-.001a6.05 6.05 0 015.291-6.719h.001a6.05 6.05 0 016.718 5.291z" fill="#d0d2c8" stroke="#000" stroke-linejoin="miter"/>
  <path d="M121.335 17.466l1.112 7.325a3.001 3.001 0 01-2.516 3.416l-54.824 8.324a3.003 3.003 0 01-3.417-2.516l-1.112-7.324a3.001 3.001 0 012.516-3.416l54.825-8.324a3 3 0 013.416 2.515z" fill="#16a6ff" stroke="#000" stroke-linejoin="miter"/>
  <path d="M108.173 15.466l.46 3.027a3.003 3.003 0 01-2.516 3.417l-2.037.309a3.001 3.001 0 01-3.416-2.516l-.46-3.027a3.001 3.001 0 012.516-3.416l2.037-.31a3.002 3.002 0 013.416 2.516zM93.247 19.06a2.592 2.592 0 01-2.171 2.949l-19.055 2.893a2.59 2.59 0 01-.777-5.12l19.054-2.893a2.592 2.592 0 012.949 2.171z" fill="#e2e4dd" stroke="#000" stroke-linejoin="miter"/>
  <path d="M151 106l6.5-10" fill="none" stroke="#000" stroke-linejoin="miter"/>
</svg>