<svg xmlns="http://www.w3.org/2000/svg" width="246" height="168" fill="none">
  <path d="M1 6h105.031c.393 0 .784.033 1.171.099L189.707 20.1l31.193 5.373 12.567 5.331a7 7 0 014.266 6.444v3.156l5.071 4.238a7.003 7.003 0 012.5 5.762l-3.581 64.05a7.006 7.006 0 01-1.16 3.485l-2.83 4.257v1.972a6.999 6.999 0 01-4.939 6.69l-3.492 1.076-2.488 2.611a8.996 8.996 0 01-6.89 2.784l-20.481-.851c10.13 11.126 5.176 27.583-14.28 25.308-9.694-1.133-97.381-36.651-98.03-72.912C67.227 87.755 11.905 82.551 1 85.237V6z" fill="#CB75FF"/>
  <path d="M199.443 136.479c10.13 11.126 5.176 27.583-14.28 25.308-9.694-1.133-97.381-36.651-98.03-72.912C67.227 87.755 11.905 82.551 1 85.237V6h105.031c.393 0 .784.033 1.171.099L189.707 20.1l31.193 5.373M199.443 136.48c-2.969-2.32-5.98-7.503-20.688-20.791m20.688 20.791l20.481.851a8.996 8.996 0 006.89-2.784l2.488-2.611m-59.068-31.926c0-7.15 3.06-12.24 14.929-7.15m-14.929 7.15s-1.705-4.656 0-7.15m0 7.15c.177.563.355 1.118.534 1.663m28.675-33.223c-2.496 8.092-5.948 14.423-9.736 19.32m-4.544 5.09a47.688 47.688 0 004.544-5.09m-4.544 5.09c1.23 1.462 9.368 8.813 12.88 10.181m2.391 14.664s.896-13.384-2.391-14.664M220.9 25.474l12.739 17.415a7.004 7.004 0 011.335 4.602l-5.672 84.444M220.9 25.475l12.567 5.33a7 7 0 014.266 6.444v3.156m-8.431 91.53l3.492-1.076a6.999 6.999 0 004.939-6.69v-1.972m0-81.792l5.071 4.238a7.003 7.003 0 012.5 5.762l-3.581 64.05a7.006 7.006 0 01-1.16 3.485l-2.83 4.257m0-81.792v81.792m-48.026-34.428c-.074 3.03 5.982 14.549 8.336 15.271m0 0l13.897-7.003m-41.172 5.635c1.449-.406 4.711-.488 6.167 2.437l4.854 9.75c-1.633 1.842-3.034 1.829-3.034 1.829m-7.987-14.016c4.347 9.14 5.832 9.962 7.987 14.016m20.688 27.421c.183 7.008-.757 9.953-3.698 14.016" stroke="#000" stroke-linecap="round"/>
  <path d="M176.931 103.745c-1.518-3.037-4.92-2.953-6.431-2.531 4.533 9.492 6.082 10.345 8.33 14.555 0 0 1.46.014 3.164-1.899l-5.063-10.125z" fill="#FFDB08" stroke="#000" stroke-linecap="round"/>
</svg>